<mxfile host="Electron" modified="2023-08-01T23:47:07.187Z" agent="Mozilla/5.0 (X11; Linux x86_64) AppleWebKit/537.36 (KHTML, like Gecko) draw.io/21.6.5 Chrome/114.0.5735.243 Electron/25.3.1 Safari/537.36" etag="LhfGvHdOVY78t1UdrUNB" version="21.6.5" type="device">
  <diagram name="Page-1" id="ZiuLwjqc9Jt7aKKi7Wt6">
    <mxGraphModel dx="705" dy="703" grid="1" gridSize="10" guides="1" tooltips="1" connect="1" arrows="1" fold="1" page="1" pageScale="1" pageWidth="850" pageHeight="1100" math="0" shadow="0">
      <root>
        <mxCell id="0" />
        <mxCell id="1" parent="0" />
        <mxCell id="oTrFpy0I9JD97Q9PtE5_-11" style="edgeStyle=orthogonalEdgeStyle;rounded=0;orthogonalLoop=1;jettySize=auto;html=1;entryX=0.5;entryY=1;entryDx=0;entryDy=0;" edge="1" parent="1" source="oTrFpy0I9JD97Q9PtE5_-1" target="oTrFpy0I9JD97Q9PtE5_-3">
          <mxGeometry relative="1" as="geometry" />
        </mxCell>
        <mxCell id="oTrFpy0I9JD97Q9PtE5_-1" value="Optimised for read" style="image;html=1;image=img/lib/clip_art/computers/Database_128x128.png" vertex="1" parent="1">
          <mxGeometry x="170" y="640" width="80" height="80" as="geometry" />
        </mxCell>
        <mxCell id="oTrFpy0I9JD97Q9PtE5_-9" style="edgeStyle=orthogonalEdgeStyle;rounded=0;orthogonalLoop=1;jettySize=auto;html=1;entryX=1;entryY=0.5;entryDx=0;entryDy=0;" edge="1" parent="1" source="oTrFpy0I9JD97Q9PtE5_-2" target="oTrFpy0I9JD97Q9PtE5_-1">
          <mxGeometry relative="1" as="geometry" />
        </mxCell>
        <mxCell id="oTrFpy0I9JD97Q9PtE5_-10" value="Eventual Consistency" style="edgeLabel;html=1;align=center;verticalAlign=middle;resizable=0;points=[];" vertex="1" connectable="0" parent="oTrFpy0I9JD97Q9PtE5_-9">
          <mxGeometry x="0.0188" y="1" relative="1" as="geometry">
            <mxPoint x="3" y="-11" as="offset" />
          </mxGeometry>
        </mxCell>
        <mxCell id="oTrFpy0I9JD97Q9PtE5_-2" value="Optimised for write" style="image;html=1;image=img/lib/clip_art/computers/Database_128x128.png" vertex="1" parent="1">
          <mxGeometry x="570" y="640" width="80" height="80" as="geometry" />
        </mxCell>
        <mxCell id="oTrFpy0I9JD97Q9PtE5_-12" style="edgeStyle=orthogonalEdgeStyle;rounded=0;orthogonalLoop=1;jettySize=auto;html=1;entryX=0.5;entryY=1;entryDx=0;entryDy=0;" edge="1" parent="1" source="oTrFpy0I9JD97Q9PtE5_-3" target="oTrFpy0I9JD97Q9PtE5_-4">
          <mxGeometry relative="1" as="geometry" />
        </mxCell>
        <mxCell id="oTrFpy0I9JD97Q9PtE5_-3" value="Data access" style="rounded=1;whiteSpace=wrap;html=1;fillColor=#f8cecc;strokeColor=#b85450;" vertex="1" parent="1">
          <mxGeometry x="150" y="510" width="120" height="60" as="geometry" />
        </mxCell>
        <mxCell id="oTrFpy0I9JD97Q9PtE5_-13" style="edgeStyle=orthogonalEdgeStyle;rounded=0;orthogonalLoop=1;jettySize=auto;html=1;entryX=0;entryY=0.5;entryDx=0;entryDy=0;exitX=0.5;exitY=0;exitDx=0;exitDy=0;" edge="1" parent="1" source="oTrFpy0I9JD97Q9PtE5_-4" target="oTrFpy0I9JD97Q9PtE5_-5">
          <mxGeometry relative="1" as="geometry" />
        </mxCell>
        <mxCell id="oTrFpy0I9JD97Q9PtE5_-4" value="Query" style="rounded=1;whiteSpace=wrap;html=1;fillColor=#f8cecc;strokeColor=#b85450;" vertex="1" parent="1">
          <mxGeometry x="150" y="330" width="120" height="60" as="geometry" />
        </mxCell>
        <mxCell id="oTrFpy0I9JD97Q9PtE5_-14" style="edgeStyle=orthogonalEdgeStyle;rounded=0;orthogonalLoop=1;jettySize=auto;html=1;entryX=0.5;entryY=0;entryDx=0;entryDy=0;" edge="1" parent="1" source="oTrFpy0I9JD97Q9PtE5_-5" target="oTrFpy0I9JD97Q9PtE5_-6">
          <mxGeometry relative="1" as="geometry" />
        </mxCell>
        <mxCell id="oTrFpy0I9JD97Q9PtE5_-5" value="API" style="rounded=1;whiteSpace=wrap;html=1;fillColor=#f8cecc;strokeColor=#b85450;" vertex="1" parent="1">
          <mxGeometry x="350" y="140" width="120" height="60" as="geometry" />
        </mxCell>
        <mxCell id="oTrFpy0I9JD97Q9PtE5_-15" style="edgeStyle=orthogonalEdgeStyle;rounded=0;orthogonalLoop=1;jettySize=auto;html=1;entryX=0.5;entryY=0;entryDx=0;entryDy=0;" edge="1" parent="1" source="oTrFpy0I9JD97Q9PtE5_-6" target="oTrFpy0I9JD97Q9PtE5_-7">
          <mxGeometry relative="1" as="geometry" />
        </mxCell>
        <mxCell id="oTrFpy0I9JD97Q9PtE5_-6" value="Command" style="rounded=1;whiteSpace=wrap;html=1;fillColor=#f8cecc;strokeColor=#b85450;" vertex="1" parent="1">
          <mxGeometry x="550" y="250" width="120" height="60" as="geometry" />
        </mxCell>
        <mxCell id="oTrFpy0I9JD97Q9PtE5_-16" style="edgeStyle=orthogonalEdgeStyle;rounded=0;orthogonalLoop=1;jettySize=auto;html=1;entryX=0.5;entryY=0;entryDx=0;entryDy=0;" edge="1" parent="1" source="oTrFpy0I9JD97Q9PtE5_-7" target="oTrFpy0I9JD97Q9PtE5_-8">
          <mxGeometry relative="1" as="geometry" />
        </mxCell>
        <mxCell id="oTrFpy0I9JD97Q9PtE5_-7" value="Domain" style="rounded=1;whiteSpace=wrap;html=1;fillColor=#f8cecc;strokeColor=#b85450;" vertex="1" parent="1">
          <mxGeometry x="550" y="380" width="120" height="60" as="geometry" />
        </mxCell>
        <mxCell id="oTrFpy0I9JD97Q9PtE5_-17" style="edgeStyle=orthogonalEdgeStyle;rounded=0;orthogonalLoop=1;jettySize=auto;html=1;exitX=0.5;exitY=1;exitDx=0;exitDy=0;entryX=0.5;entryY=0;entryDx=0;entryDy=0;" edge="1" parent="1" source="oTrFpy0I9JD97Q9PtE5_-8" target="oTrFpy0I9JD97Q9PtE5_-2">
          <mxGeometry relative="1" as="geometry" />
        </mxCell>
        <mxCell id="oTrFpy0I9JD97Q9PtE5_-8" value="Persistence" style="rounded=1;whiteSpace=wrap;html=1;fillColor=#f8cecc;strokeColor=#b85450;" vertex="1" parent="1">
          <mxGeometry x="550" y="500" width="120" height="60" as="geometry" />
        </mxCell>
      </root>
    </mxGraphModel>
  </diagram>
</mxfile>
